HIERARCHY
ROOT Hips
{
  OFFSET 0 0 0
  CHANNELS 6 Xposition Yposition Zposition Zrotation Yrotation Xrotation
  JOINT LeftThigh
  {
    OFFSET 8.409438 0 -5.917753
    CHANNELS 3 Zrotation Yrotation Xrotation
    JOINT LeftLeg
    {
      OFFSET 0 0 -42.358652
      CHANNELS 3 Zrotation Yrotation Xrotation
      JOINT LeftFoot
      {
        OFFSET 0 0 -39.357303
        CHANNELS 3 Zrotation Yrotation Xrotation
      }
    }
  }
  JOINT RightThigh
  {
    OFFSET -8.409438 0 -5.917753
    CHANNELS 3 Zrotation Yrotation Xrotation
    JOINT RightLeg
    {
      OFFSET 0 0 -42.358652
      CHANNELS 3 Zrotation Yrotation Xrotation
      JOINT RightFoot
      {
        OFFSET 0 0 -39.357303
        CHANNELS 3 Zrotation Yrotation Xrotation
      }
    }
  }
  JOINT SpineLow
  {
    OFFSET 0 0 4.719101
    CHANNELS 3 Zrotation Yrotation Xrotation
    JOINT SpineMid
    {
      OFFSET 0 0 12.899191
      CHANNELS 3 Zrotation Yrotation Xrotation
      JOINT Chest
      {
        OFFSET 0 0 12.899191
        CHANNELS 3 Zrotation Yrotation Xrotation
        JOINT LeftShoulder
        {
          OFFSET 7.550562 1.41573 9.438202
          CHANNELS 3 Zrotation Yrotation Xrotation
          JOINT LeftArm
          {
            OFFSET 9.155056 0 4.247191
            CHANNELS 3 Zrotation Yrotation Xrotation
            JOINT LeftForearm
            {
              OFFSET 0 0 25.771955
              CHANNELS 3 Zrotation Yrotation Xrotation
              JOINT LeftHand
              {
                OFFSET 0 0 25.197169
                CHANNELS 3 Zrotation Yrotation Xrotation
              }
            }
          }
        }
        JOINT RightShoulder
        {
          OFFSET -7.550562 1.41573 9.438202
          CHANNELS 3 Zrotation Yrotation Xrotation
          JOINT RightArm
          {
            OFFSET -9.155056 0 4.247191
            CHANNELS 3 Zrotation Yrotation Xrotation
            JOINT RightForearm
            {
              OFFSET 0 0 -25.771955
              CHANNELS 3 Zrotation Yrotation Xrotation
              JOINT RightHand
              {
                OFFSET 0 0 -25.197169
                CHANNELS 3 Zrotation Yrotation Xrotation
              }
            }
          }
        }
        JOINT Neck
        {
          OFFSET 0 0 15.101124
          CHANNELS 3 Zrotation Yrotation Xrotation
          JOINT Head
          {
            OFFSET 0 0 11.325843
            CHANNELS 3 Zrotation Yrotation Xrotation
            End Site
            {
              OFFSET 0 0 14.157303
            }
          }
        }
      }
    }
  }
}
MOTION
Frames: 14
Frame Time: 0.0
0.0  101.685394  0.0  6.450962  20.000498  -97.110254  15.574495  -26.924932  30.620441  -5.24847  9.768342  19.379067  -2.978775  4.148286  2.976112  -21.41827  7.214789  -44.150021  15.911252  11.66286  61.849333  26.188393  4.538269  1.426157  -5.782179  1.302444  1.142359  -15.755373  3.808139  2.79443  -15.755373  3.808139  2.79443  14.035842  34.555892  24.307469  141.027338  80.505213  -152.176453  -57.044759  -28.063317  98.366032  46.417391  -14.512555  3.171341  32.637727  -6.179527  34.734858  107.388459  32.305878  35.019002  -42.848526  12.82324  -107.224357  83.978034  5.733247  82.022677  8.262689  -0.318016  -3.122243  6.195568  -0.280798  -2.337883  
0.0  101.685394  0.0  6.635208  20.021281  -96.959308  16.708602  -27.573853  30.370099  -7.129017  10.795832  19.056852  -3.132768  3.910556  1.981662  -22.228875  7.330033  -44.745886  16.490101  11.446481  61.783848  26.403316  4.153823  1.276871  -5.688813  1.354761  1.10733  -15.500805  3.938444  2.692716  -15.500804  3.938444  2.692716  13.902415  34.281377  24.644113  140.807306  79.910188  -152.570901  -56.512793  -27.535446  98.177521  46.951592  -14.120024  3.922905  31.957032  -6.483861  34.765074  107.828166  32.034695  35.148402  -42.485363  12.651899  -106.88472  83.733592  5.88854  82.21227  7.77269  -0.62178  -2.717181  5.826833  -0.501003  -2.030347  
0.0  101.685394  0.0  6.840071  20.255667  -96.843121  16.648616  -27.60875  30.279999  -7.716095  11.555155  19.177179  -3.554764  3.7899  0.923354  -23.111125  7.60089  -45.225569  17.491713  10.582096  61.892579  25.936867  3.599884  0.902043  -5.636308  1.411051  1.084374  -15.357342  4.084091  2.620652  -15.357343  4.084091  2.620652  13.676043  34.012308  24.9206  139.109804  79.458605  -154.548065  -56.326021  -27.436489  97.911818  47.38087  -13.977667  4.54457  31.322438  -6.6762  34.779473  108.099388  31.962404  35.217376  -41.854727  12.281719  -106.627091  83.419232  6.084745  82.182116  7.323003  -0.878827  -2.293955  5.488938  -0.686737  -1.710192  
0.0  101.685394  0.0  7.042728  20.696032  -96.756174  15.921054  -27.195721  30.101437  -7.308992  11.834249  19.788535  -4.225745  3.931582  0.008248  -23.933304  8.090395  -45.645044  17.499261  10.222079  61.741931  26.062545  3.217831  0.762026  -5.643008  1.453955  1.077331  -15.375247  4.199237  2.591224  -15.375246  4.199237  2.591224  13.503783  33.824967  25.112425  137.127897  78.984644  -156.818526  -56.320841  -27.508475  97.728083  47.722991  -13.831176  5.012796  30.878321  -6.649638  34.774647  108.277183  32.078518  35.228087  -41.110356  11.780005  -106.476538  83.079356  6.22646  82.105631  6.96551  -1.030047  -1.968756  5.220739  -0.795107  -1.465011  
0.0  101.685394  0.0  7.162958  21.252911  -96.718282  14.994273  -26.545668  29.844641  -6.768416  11.891073  20.452138  -5.01571  4.001805  -0.856035  -24.647983  8.695412  -46.012863  17.182957  9.864029  61.629815  26.202121  2.871392  0.652871  -5.672061  1.484925  1.095805  -15.452919  4.288667  2.632414  -15.452918  4.288666  2.632414  13.189736  33.586441  25.146934  135.435879  78.361078  -158.681764  -56.475742  -27.508188  97.720339  48.077118  -13.537784  5.376493  30.36167  -6.541129  34.607692  108.550129  32.204514  35.278712  -40.409684  11.248474  -106.420849  82.781144  6.310473  82.099326  6.643252  -1.132719  -1.822489  4.978952  -0.869481  -1.354698  
0.0  101.685394  0.0  7.219762  21.721406  -96.703557  14.385498  -25.904882  29.518624  -6.452771  11.89556  21.035961  -5.345858  3.958719  -1.52745  -25.151914  9.340685  -46.390769  16.647181  9.543404  61.569388  26.282435  2.588247  0.601613  -5.704074  1.503288  1.109964  -15.539212  4.342987  2.664507  -15.539212  4.342986  2.664507  13.093369  33.31269  25.243859  134.431959  77.665203  -159.774601  -56.674743  -27.167854  97.922341  48.420912  -13.075852  5.670169  30.118955  -6.459076  34.565987  108.759084  32.398267  35.336838  -40.022139  10.802924  -106.484389  82.700661  6.265508  82.203634  6.400662  -1.186223  -1.794486  4.796891  -0.908589  -1.333564  
0.0  101.685394  0.0  7.248989  22.210213  -96.703157  13.932537  -25.280128  29.0963  -6.541607  11.895579  21.545805  -5.225305  3.884274  -2.067805  -25.659561  10.03124  -46.827512  16.010795  9.249311  61.565688  26.454524  2.358169  0.578974  -5.75134  1.506926  1.127438  -15.667318  4.358689  2.707948  -15.667318  4.358689  2.707948  12.90531  33.076371  25.293133  134.459203  76.930908  -159.798588  -56.865536  -26.791273  98.252935  48.687236  -12.488729  5.83813  29.829651  -6.344466  34.489311  108.098175  33.170398  35.239603  -38.863277  10.336745  -106.78001  82.831709  5.987489  82.403336  6.211092  -1.186074  -1.902669  4.654514  -0.909014  -1.415068  
0.0  101.685394  0.0  7.187049  22.408656  -96.680304  13.743753  -24.902748  28.591538  -6.594752  12.009087  22.081895  -5.043894  3.818276  -2.513987  -25.98606  10.468456  -47.281332  15.499032  9.149491  61.568088  26.707541  2.133514  0.534132  -5.76091  1.49354  1.136698  -15.693167  4.324877  2.735606  -15.693166  4.324877  2.735606  12.9302  32.929203  25.41187  134.134132  76.289483  -160.128197  -57.065248  -26.459497  98.728834  48.812783  -11.900205  5.848981  29.763124  -6.311029  34.593133  108.40057  33.394868  35.422508  -39.219416  10.469635  -106.822358  82.966444  5.39212  82.596118  6.04501  -1.190645  -2.085402  4.529594  -0.91373  -1.552397  
0.0  101.685394  0.0  7.015266  22.314669  -96.802402  13.708534  -24.838073  28.247981  -6.595872  12.289629  22.553205  -4.930641  3.761045  -2.843268  -26.0753  10.694167  -47.5697  15.426895  8.462456  61.739164  26.503935  2.028611  0.374448  -5.739951  1.475501  1.160387  -15.634631  4.280672  2.80566  -15.634631  4.280672  2.80566  12.984097  32.802191  25.511764  133.552852  75.649813  -160.650016  -57.356692  -26.409813  99.275487  48.918898  -11.418621  5.74965  29.740728  -6.370461  34.772057  108.653693  33.78353  35.709895  -39.762782  10.864127  -106.839258  82.973041  4.570552  82.721273  5.929407  -1.227858  -2.311783  4.442316  -0.943444  -1.722049  
0.0  101.685394  0.0  6.902077  22.220348  -96.815522  13.640663  -24.738493  27.911009  -6.421829  12.585359  22.980152  -5.027952  3.71268  -3.09345  -26.185568  10.808819  -47.904133  15.161988  8.738346  61.700879  26.973155  1.805037  0.247464  -5.725848  1.443045  1.183858  -15.595253  4.197494  2.877982  -15.595254  4.197495  2.877982  13.045224  32.867391  25.551757  133.053735  75.125596  -161.160281  -57.643686  -26.422787  99.927838  49.125532  -11.054599  5.590426  29.77671  -6.371212  34.963579  108.985362  34.178776  36.107354  -40.613209  11.465938  -106.818437  82.857768  3.604825  82.767808  5.819494  -1.231268  -2.632915  4.359244  -0.948645  -1.963096  
0.0  101.685394  0.0  6.785208  22.022473  -96.863352  13.57187  -24.582342  27.614374  -6.141815  12.804672  23.430974  -5.144545  3.747716  -3.281812  -26.231264  10.738722  -48.108782  14.988433  9.118905  61.563747  27.39088  1.622036  0.111937  -5.702823  1.407307  1.228522  -15.530275  4.109949  3.009242  -15.530275  4.109949  3.009242  13.000876  33.004503  25.477962  132.608031  74.689839  -161.584637  -57.965497  -26.617515  100.576761  49.467693  -10.763334  5.371556  29.782037  -6.33017  35.073184  109.330391  34.667551  36.596211  -41.451501  12.014568  -106.80663  82.644318  2.699546  82.737556  5.625777  -1.218347  -3.076396  4.213167  -0.942202  -2.296225  
0.0  101.685394  0.0  6.709622  21.757056  -96.908568  13.588736  -24.379618  27.27928  -6.029648  12.973686  23.915155  -4.964353  3.905751  -3.383108  -26.245089  10.564113  -48.240828  14.985961  9.477975  61.36124  27.811268  1.533792  0.064977  -5.679513  1.374536  1.276079  -15.464398  4.031027  3.147638  -15.464397  4.031027  3.147637  13.093726  33.205576  25.411466  132.318378  74.314497  -161.896492  -58.212371  -26.801115  101.280129  49.861412  -10.470983  5.074327  29.784355  -6.227968  35.188514  109.643901  35.250683  37.111644  -42.072762  12.384019  -106.875589  82.331856  1.853314  82.567695  5.557691  -1.239285  -3.434267  4.161298  -0.960825  -2.56458  
0.0  101.685394  0.0  6.688687  21.449312  -97.001049  13.814161  -24.316573  26.991066  -6.341703  13.222287  24.319029  -4.382576  4.201143  -3.34545  -26.487677  10.521218  -48.393518  15.051768  9.614109  61.098555  28.141804  1.486257  0.02734  -5.652487  1.3568  1.339762  -15.387008  3.996391  3.326622  -15.387007  3.996391  3.326621  12.774495  33.344449  25.057758  132.748376  73.828444  -161.718815  -58.450488  -27.032351  102.007442  50.253659  -10.124927  4.679084  29.696126  -6.087993  35.187363  109.938886  35.830967  37.605267  -42.48133  12.54491  -107.028224  81.98807  1.005171  82.200281  5.425027  -1.263459  -3.815297  4.060905  -0.981599  -2.850406  
0.0  101.685394  0.0  6.723817  21.142588  -97.12265  14.280214  -24.435566  26.775649  -6.909743  13.503027  24.599031  -3.952697  4.403668  -3.378633  -26.469419  10.397193  -48.417965  15.254207  9.78735  60.882671  28.358616  1.447483  0.041901  -5.629459  1.353441  1.404915  -15.320037  4.001187  3.506053  -15.320036  4.001187  3.506053  12.759041  33.489595  24.805229  132.631347  73.398954  -161.992401  -58.680761  -27.203854  102.784042  50.568109  -9.693471  4.252669  29.608794  -5.902191  35.212132  110.067163  36.494179  37.926709  -42.624902  12.589256  -107.206169  81.623039  0.238606  81.624488  5.387716  -1.311651  -4.074032  4.032079  -1.019801  -3.044107  
